{"title":"Harry Potter 6 Half Blood Prince(2009)TS XVID[filesharing-vault]","uid":5038438,"size":1476714574,"categoryP":"video","categoryS":"movies","magnet":"?xt=urn:btih:8c4b4d783e9aa3aecbf8c2b131a8b35ab82239f2&amp;dn=Harry+Potter+6+Half+Blood+Prince%282009%29TS+XVID%5Bfilesharing-vault%5D&amp;tr=udp%3A%2F%2Ftracker.openbittorrent.com%3A80&amp;tr=udp%3A%2F%2Fopen.demonii.com%3A1337&amp;tr=udp%3A%2F%2Ftracker.coppersurfer.tk%3A6969&amp;tr=udp%3A%2F%2Fexodus.desync.com%3A6969","seeders":0,"leechers":1,"uploader":"captainelliotspencer","files":3,"time":1249246280,"description":"Format                           : AVI\nFormat/Info                      : Audio Video Interleave\nFile size                        : 1.38 GiB\nDuration                         : 2h 18mn\nOverall bit rate                 : 1 424 Kbps\nWriting application              : VirtualDubMod 1.5.10.2 (build 2540/release)\nWriting library                  : VirtualDubMod build 2540/release\n\nVideo\nFormat                           : MPEG-4 Visual\nFormat profile                   : Streaming Video@L1\nFormat settings, BVOP            : Yes\nFormat settings, QPel            : No\nFormat settings, GMC             : No warppoints\nFormat settings, Matrix          : Default (H.263)\nMuxing mode                      : Packed bitstream\nCodec ID                         : XVID\nCodec ID/Hint                    : XviD\nDuration                         : 2h 18mn\nBit rate                         : 1 286 Kbps\nWidth                            : 720 pixels\nHeight                           : 298 pixels\nDisplay aspect ratio             : 2.416\nFrame rate                       : 25.000 fps\nResolution                       : 24 bits\nColorimetry                      : 4:2:0\nScan type                        : Progressive\nBits/(Pixel*Frame)               : 0.240\nStream size                      : 1.24 GiB (90%)\nWriting library                  : XviD 1.2.1 (UTC 2008-12-04)\n\nAudio\nFormat                           : MPEG Audio\nFormat version                   : Version 1\nFormat profile                   : Layer 2\nCodec ID                         : 50\nCodec ID/Hint                    : MP1\nDuration                         : 2h 18mn\nBit rate mode                    : Constant\nBit rate                         : 128 Kbps\nChannel(s)                       : 2 channels\nSampling rate                    : 44.1 KHz\nResolution                       : 16 bits\nStream size                      : 127 MiB (9%)\nAlignment                        : Split accross interleaves\nInterleave, duration             : 40 ms (1.00 video frame)\nInterleave, preload duration     : 500 ms\n \n\nCHECKOUT OUR BRAND NEW SITE [UPDATED DAILY]:\n\nwww.filesharing-vault.com","torrent":{"xt":"urn:btih:8c4b4d783e9aa3aecbf8c2b131a8b35ab82239f2","amp;dn":"Harry+Potter+6+Half+Blood+Prince%282009%29TS+XVID%5Bfilesharing-vault%5D","amp;tr":["udp%3A%2F%2Ftracker.openbittorrent.com%3A80","udp%3A%2F%2Fopen.demonii.com%3A1337","udp%3A%2F%2Ftracker.coppersurfer.tk%3A6969","udp%3A%2F%2Fexodus.desync.com%3A6969"],"infoHash":"8c4b4d783e9aa3aecbf8c2b131a8b35ab82239f2","infoHashBuffer":{"type":"Buffer","data":[140,75,77,120,62,154,163,174,203,248,194,177,49,168,179,90,184,34,57,242]},"announce":[],"urlList":[]}}